<svg width="24" height="32" viewBox="0 0 24 32" fill="none" xmlns="http://www.w3.org/2000/svg">
<path id="Union" d="M12 2L13.0707 0.94943C12.7886 0.66196 12.4027 0.5 12 0.5C11.5973 0.5 11.2114 0.66196 10.9293 0.94943L12 2ZM12 2C10.9293 0.94943 10.9291 0.949701 10.9288 0.950011C10.9286 0.950167 10.9283 0.950517 10.928 0.950828C10.9274 0.95145 10.9266 0.952228 10.9257 0.953162C10.9239 0.955028 10.9214 0.957516 10.9184 0.960619C10.9124 0.966826 10.9039 0.975496 10.8932 0.986585C10.8718 1.00876 10.8411 1.04063 10.8018 1.08183C10.7233 1.16422 10.6104 1.28401 10.4679 1.43842C10.183 1.74716 9.77964 2.19488 9.2972 2.75938C8.33372 3.88674 7.0478 5.48819 5.75922 7.38505C3.22637 11.1136 0.5 16.2455 0.5 21.25H3.5C3.5 17.1957 5.77363 12.7026 8.24078 9.07083C9.4522 7.28754 10.6663 5.77502 11.5778 4.70845C12.0329 4.17598 12.4107 3.75675 12.6727 3.47277C12.8037 3.33082 12.9056 3.22282 12.9736 3.1515C13.0075 3.11585 13.033 3.08938 13.0494 3.07244C13.0576 3.06397 13.0635 3.05788 13.0671 3.05422C13.0689 3.05239 13.0701 3.05117 13.0707 3.05056C13.071 3.05025 13.0711 3.0501 13.0711 3.0501C13.0711 3.0501 13.071 3.05022 13.071 3.05022C13.0708 3.05038 13.0707 3.05057 12 2ZM23.5 21.25C23.5 16.2455 20.7736 11.1136 18.2408 7.38505C16.9522 5.48819 15.6663 3.88674 14.7028 2.75938C14.2204 2.19488 13.817 1.74716 13.5321 1.43842C13.3896 1.28401 13.2767 1.16422 13.1982 1.08183C13.1589 1.04063 13.1282 1.00876 13.1068 0.986585C13.0961 0.975496 13.0876 0.966826 13.0816 0.960619C13.0786 0.957516 13.0761 0.955028 13.0743 0.953162C13.0734 0.952228 13.0726 0.95145 13.072 0.950828C13.0717 0.950517 13.0714 0.950167 13.0712 0.950011C13.0709 0.949701 13.0707 0.94943 12 2C10.9293 3.05057 10.9292 3.05038 10.929 3.05022C10.929 3.05022 10.9289 3.0501 10.9289 3.0501C10.9289 3.0501 10.929 3.05025 10.9293 3.05056C10.9299 3.05117 10.9311 3.05239 10.9329 3.05422C10.9365 3.05788 10.9424 3.06397 10.9506 3.07244C10.967 3.08938 10.9925 3.11585 11.0264 3.1515C11.0944 3.22282 11.1963 3.33082 11.3273 3.47277C11.5893 3.75675 11.9671 4.17598 12.4222 4.70845C13.3337 5.77502 14.5478 7.28754 15.7592 9.07083C18.2264 12.7026 20.5 17.1957 20.5 21.25H23.5ZM20.5 21.25C20.5 25.0722 16.8888 28.5 12 28.5V31.5C18.1569 31.5 23.5 27.0928 23.5 21.25H20.5ZM12 28.5C7.11117 28.5 3.5 25.0722 3.5 21.25H0.5C0.5 27.0928 5.84313 31.5 12 31.5V28.5Z" fill="white"/>
</svg>
